<svg xmlns="http://www.w3.org/2000/svg" version="1.1" xmlns:xlink="http://www.w3.org/1999/xlink" xmlns:svgjs="http://svgjs.dev/svgjs" width="48" height="48"><svg width="48" height="48" viewBox="0 0 48 48" fill="none" xmlns="http://www.w3.org/2000/svg">
<rect width="48" height="48" fill="#292F36"></rect>
<path d="M7.416 20.8C8.312 19.856 9.152 19.384 9.936 19.384C10.624 19.384 11.312 19.776 12 20.56L7.92 24.52L12.048 28.528C11.76 28.88 11.44 29.16 11.088 29.368C10.752 29.576 10.376 29.68 9.96 29.68C9.592 29.68 9.2 29.576 8.784 29.368C8.368 29.144 7.928 28.784 7.464 28.288L3.84 24.496L7.416 20.8ZM17.3038 27.208C17.3038 27.4 17.3118 27.584 17.3278 27.76C17.3598 27.936 17.4078 28.096 17.4718 28.24C17.5518 28.368 17.6558 28.48 17.7838 28.576C17.9278 28.656 18.1198 28.696 18.3598 28.696C18.4878 28.696 18.6158 28.68 18.7438 28.648C18.8878 28.6 19.0158 28.528 19.1278 28.432C19.1918 28.56 19.2318 28.688 19.2478 28.816C19.2638 28.928 19.2718 29.048 19.2718 29.176C19.2718 29.688 19.0398 30.112 18.5758 30.448C18.1118 30.784 17.5198 30.952 16.7998 30.952C15.9358 30.952 15.2638 30.696 14.7838 30.184C14.3198 29.656 14.0878 28.888 14.0878 27.88V18.832C14.1678 18.816 14.2398 18.808 14.3038 18.808H14.5198C15.3838 18.808 16.0638 19.04 16.5598 19.504C17.0558 19.968 17.3038 20.68 17.3038 21.64V27.208ZM19.5598 21.568C19.5598 21.072 19.6478 20.648 19.8238 20.296C19.9998 19.944 20.2318 19.656 20.5198 19.432C20.8078 19.208 21.1358 19.048 21.5038 18.952C21.8718 18.856 22.2478 18.808 22.6318 18.808H22.7758V25.504C22.7758 26.8 22.5038 27.72 21.9598 28.264C21.4158 28.808 20.6158 29.08 19.5598 29.08V21.568ZM29.6674 12.712H29.9554C30.3074 12.712 30.6674 12.752 31.0354 12.832C31.4194 12.912 31.7634 13.064 32.0674 13.288C32.3874 13.496 32.6434 13.792 32.8354 14.176C33.0274 14.544 33.1234 15.016 33.1234 15.592V19.336C33.1234 19.912 33.0274 20.392 32.8354 20.776C32.6434 21.144 32.3874 21.44 32.0674 21.664C31.7634 21.872 31.4194 22.016 31.0354 22.096C30.6674 22.176 30.3074 22.216 29.9554 22.216H29.6674V12.712ZM28.7554 31H28.4674C28.0994 31 27.7314 30.96 27.3634 30.88C26.9954 30.8 26.6514 30.656 26.3314 30.448C26.0274 30.224 25.7794 29.928 25.5874 29.56C25.3954 29.176 25.2994 28.696 25.2994 28.12V24.376C25.2994 23.8 25.3954 23.328 25.5874 22.96C25.7794 22.576 26.0274 22.28 26.3314 22.072C26.6514 21.848 26.9954 21.696 27.3634 21.616C27.7314 21.536 28.0994 21.496 28.4674 21.496H28.7554V31ZM43.7383 24.496L40.1143 28.288C39.6503 28.784 39.2023 29.144 38.7703 29.368C38.3383 29.576 37.9383 29.68 37.5703 29.68C37.1703 29.68 36.8023 29.576 36.4663 29.368C36.1303 29.16 35.8183 28.88 35.5303 28.528L39.6583 24.52L35.5783 20.56C36.2663 19.776 36.9543 19.384 37.6423 19.384C38.4103 19.384 39.2503 19.856 40.1623 20.8L43.7383 24.496Z" fill="#12F7D6"></path>
</svg><style>@media (prefers-color-scheme: light) { :root { filter: none; } }
@media (prefers-color-scheme: dark) { :root { filter: none; } }
</style></svg>